<svg id="Center" xmlns="http://www.w3.org/2000/svg" viewBox="0 0 1920 1487"><title>grow-section-3-large</title><g id="About"><g id="Rectangle_11" data-name="Rectangle 11"><rect width="1920" height="1487" fill="#a2a2a2"/></g><g id="grow."><g style="isolation:isolate"><g style="isolation:isolate"><path d="M720.85,170.89v134.4c0,60-32.4,87.6-90.6,87.6-30.6,0-60.3-7.5-79.2-22.2l18.6-33.6c13.8,11.1,36.3,18.3,57,18.3,33,0,47.4-15,47.4-44.1v-6.9c-12.3,13.5-30,20.1-51,20.1-44.7,0-80.7-30.9-80.7-78s36-78,80.7-78c22.5,0,41.1,7.5,53.4,23.1v-20.7Zm-46.2,75.6c0-23.7-17.7-39.6-42.3-39.6s-42.6,15.9-42.6,39.6,18,39.6,42.6,39.6S674.65,270.19,674.65,246.49Z" fill="#adadad"/></g><g style="isolation:isolate"><path d="M857.05,168.49v43.2c-3.9-.3-6.9-.6-10.5-.6-25.8,0-42.9,14.1-42.9,45v76.2h-46.8V170.89h44.7v21.3C813,176.59,832.15,168.49,857.05,168.49Z" fill="#adadad"/></g><g style="isolation:isolate"><path d="M864,251.59c0-48.6,37.5-83.1,88.8-83.1s88.5,34.5,88.5,83.1-37.2,83.1-88.5,83.1S864,300.19,864,251.59Zm129.9,0c0-27.9-17.7-44.7-41.1-44.7s-41.4,16.8-41.4,44.7,18,44.7,41.4,44.7S993.85,279.49,993.85,251.59Z" fill="#adadad"/></g><g style="isolation:isolate"><path d="M1319.65,170.89l-58.5,161.4h-45l-36.3-100.2-37.5,100.2h-45l-58.2-161.4h44.1l38.1,109.2,39.6-109.2h39.6l38.4,109.2,39.3-109.2Z" fill="#adadad"/></g><g style="isolation:isolate"><path d="M1313.05,305.29c0-17.4,12.9-28.8,29.1-28.8s29.1,11.4,29.1,28.8c0,17.1-12.9,29.4-29.1,29.4S1313.05,322.39,1313.05,305.29Z" fill="#adadad"/></g></g></g></g></svg>