<svg id="Center" xmlns="http://www.w3.org/2000/svg" viewBox="0 0 1479.49 1487"><title>grow-section-3-small</title><g id="About"><g id="Rectangle_11" data-name="Rectangle 11"><rect width="1479.49" height="1487" fill="#a2a2a2"/></g><g id="grow."><g style="isolation:isolate"><g style="isolation:isolate"><path d="M475.48,170.89v134.4c0,60-32.4,87.6-90.6,87.6-30.6,0-60.3-7.5-79.2-22.2l18.6-33.6c13.8,11.1,36.3,18.3,57,18.3,33,0,47.4-15,47.4-44.1v-6.9c-12.3,13.5-30,20.1-51,20.1-44.7,0-80.7-30.9-80.7-78s36-78,80.7-78c22.5,0,41.1,7.5,53.4,23.1v-20.7Zm-46.2,75.6c0-23.7-17.7-39.6-42.3-39.6s-42.6,15.9-42.6,39.6,18,39.6,42.6,39.6S429.28,270.19,429.28,246.49Z" fill="#adadad"/></g><g style="isolation:isolate"><path d="M611.68,168.49v43.2c-3.9-.3-6.9-.6-10.5-.6-25.8,0-42.9,14.1-42.9,45v76.2h-46.8V170.89h44.7v21.3C567.58,176.59,586.78,168.49,611.68,168.49Z" fill="#adadad"/></g><g style="isolation:isolate"><path d="M618.58,251.59c0-48.6,37.5-83.1,88.8-83.1s88.5,34.5,88.5,83.1-37.2,83.1-88.5,83.1S618.58,300.19,618.58,251.59Zm129.9,0c0-27.9-17.7-44.7-41.1-44.7s-41.4,16.8-41.4,44.7,18,44.7,41.4,44.7S748.48,279.49,748.48,251.59Z" fill="#adadad"/></g><g style="isolation:isolate"><path d="M1074.28,170.89l-58.5,161.4h-45l-36.3-100.2L897,332.29H852l-58.2-161.4h44.1L876,280.09l39.6-109.2h39.6l38.4,109.2,39.3-109.2Z" fill="#adadad"/></g><g style="isolation:isolate"><path d="M1067.68,305.29c0-17.4,12.9-28.8,29.1-28.8s29.1,11.4,29.1,28.8c0,17.1-12.9,29.4-29.1,29.4S1067.68,322.39,1067.68,305.29Z" fill="#adadad"/></g></g></g></g></svg>