<svg id="Center" xmlns="http://www.w3.org/2000/svg" viewBox="0 0 1932 1487"><title>one-section-2-large</title><g id="VIEW_PROJECT" data-name="VIEW PROJECT"><g id="Rectangle_11_copy" data-name="Rectangle 11 copy"><rect width="1932" height="1487" fill="#cbcbcb"/></g><g id="one"><g style="isolation:isolate"><g style="isolation:isolate"><path d="M1282,822.12c-48.6,0-83.1-37.5-83.1-88.8s34.5-88.5,83.1-88.5,83.1,37.2,83.1,88.5S1330.57,822.12,1282,822.12Zm0-129.9c-27.9,0-44.7,17.7-44.7,41.1s16.8,41.4,44.7,41.4,44.7-18,44.7-41.4S1309.87,692.22,1282,692.22Z" fill="silver"/></g><g style="isolation:isolate"><path d="M1270.27,463.62h92.4v46.8h-85.2c-26.1,0-38.1,12-38.1,32.7,0,22.5,13.8,38.7,43.5,38.7h79.8v46.8h-161.4v-44.7h18.9c-13.8-12.6-21.3-31.5-21.3-53.4C1198.87,492.42,1221.07,463.62,1270.27,463.62Z" fill="silver"/></g><g style="isolation:isolate"><path d="M1295.17,277.32v122.1c20.1-4.5,32.4-21.6,32.4-46.2,0-17.1-5.1-29.4-15.6-40.5l27-24.9c17.1,15,26.1,37.5,26.1,66.6,0,55.8-35.1,92.1-83.1,92.1-48.3,0-83.1-36.9-83.1-86.1,0-47.4,31.8-84,83.7-84C1286.17,276.42,1291.27,277,1295.17,277.32ZM1267.87,400v-79.5c-20.4,3.3-33.6,18.6-33.6,39.6C1234.27,381.42,1247.17,396.72,1267.87,400Z" fill="silver"/></g></g></g></g></svg>