<svg id="Center" xmlns="http://www.w3.org/2000/svg" viewBox="0 0 1472.79 1482"><title>strategy-section-4-small</title><g id="Services"><g id="Rectangle_11" data-name="Rectangle 11"><rect width="1472.79" height="1482" fill="#cbcbcb"/></g><g id="strategy"><path d="M215.31,345l13-28c12,7.75,30.25,13,46.75,13,18,0,24.75-4.75,24.75-12.25,0-22-81.25.5-81.25-53.25,0-25.5,23-43.5,62.25-43.5,18.5,0,39,4.25,51.75,11.75l-13,27.75a77.24,77.24,0,0,0-38.75-10c-17.5,0-25,5.5-25,12.5,0,23,81.25.75,81.25,53.75,0,25-23.25,42.75-63.5,42.75C250.81,359.52,227.81,353.27,215.31,345Z" transform="translate(-6 0)" fill="silver"/><path d="M437.81,351c-8,5.75-19.75,8.5-31.75,8.5-31.75,0-50.25-16.25-50.25-48.25V256H335.06V226h20.75V193.27h39V226h33.5v30h-33.5v54.75c0,11.5,6.25,17.75,16.75,17.75a26.28,26.28,0,0,0,15.75-5Z" transform="translate(-6 0)" fill="silver"/><path d="M533.31,221v36c-3.25-.25-5.75-.5-8.75-.5-21.5,0-35.75,11.75-35.75,37.5v63.5h-39V223h37.25v17.75C496.56,227.77,512.56,221,533.31,221Z" transform="translate(-6 0)" fill="silver"/><path d="M664.81,280.77v76.75h-36.5V340.77c-7.25,12.25-21.25,18.75-41,18.75-31.5,0-50.25-17.5-50.25-40.75,0-23.75,16.75-40.25,57.75-40.25h31c0-16.75-10-26.5-31-26.5-14.25,0-29,4.75-38.75,12.5l-14-27.25c14.75-10.5,36.5-16.25,58-16.25C641.06,221,664.81,240,664.81,280.77Zm-39,34.25V301.27H599.06c-18.25,0-24,6.75-24,15.75,0,9.75,8.25,16.25,22,16.25C610.06,333.27,621.31,327.27,625.81,315Z" transform="translate(-6 0)" fill="silver"/><path d="M776.81,351c-8,5.75-19.75,8.5-31.75,8.5-31.75,0-50.25-16.25-50.25-48.25V256H674.06V226h20.75V193.27h39V226h33.5v30h-33.5v54.75c0,11.5,6.25,17.75,16.75,17.75a26.28,26.28,0,0,0,15.75-5Z" transform="translate(-6 0)" fill="silver"/><path d="M915.56,301.27H813.81c3.75,16.75,18,27,38.5,27,14.25,0,24.5-4.25,33.75-13l20.75,22.5c-12.5,14.25-31.25,21.75-55.5,21.75-46.5,0-76.75-29.25-76.75-69.25,0-40.25,30.75-69.25,71.75-69.25,39.5,0,70,26.5,70,69.75C916.31,293.77,915.81,298,915.56,301.27ZM813.31,278.52h66.25c-2.75-17-15.5-28-33-28C828.81,250.52,816.06,261.27,813.31,278.52Z" transform="translate(-6 0)" fill="silver"/><path d="M1071.06,223V335c0,50-27,73-75.5,73-25.5,0-50.25-6.25-66-18.5l15.5-28c11.5,9.25,30.25,15.25,47.5,15.25,27.5,0,39.5-12.5,39.5-36.75v-5.75c-10.25,11.25-25,16.75-42.5,16.75-37.25,0-67.25-25.75-67.25-65s30-65,67.25-65c18.75,0,34.25,6.25,44.5,19.25V223Zm-38.5,63c0-19.75-14.75-33-35.25-33s-35.5,13.25-35.5,33,15,33,35.5,33S1032.56,305.77,1032.56,286Z" transform="translate(-6 0)" fill="silver"/><path d="M1230.81,223l-60.75,142.75c-13,32.5-31.5,42.25-55.75,42.25-13.75,0-28.75-4.5-37.5-12.25L1091.06,368a34.58,34.58,0,0,0,22,8.5c10.75,0,16.75-4.75,22-16.75l.5-1.25L1077.31,223h40.25l37.75,91.25,38-91.25Z" transform="translate(-6 0)" fill="silver"/></g></g></svg>