<svg xmlns="http://www.w3.org/2000/svg" width="34" height="34" viewBox="0 0 34 34">
  <g id="Vector_Smart_Object" data-name="Vector Smart Object" transform="translate(-1.567 -252.947)">
    <g id="Group_1" data-name="Group 1">
      <path id="Path_3" data-name="Path 3" d="M35.567,269.947a17,17,0,1,1-17-17,17,17,0,0,1,17,17Zm0,0" fill="#474747"/>
      <path id="Path_4" data-name="Path 4" d="M24.662,266.991c-4.911,0-4.917,4.892-4.917,4.917a4.544,4.544,0,0,0,4.917,4.9s4.38.25,4.38-3.408H26.793s.074,1.378-2.057,1.378a2.08,2.08,0,0,1-2.249-2.225h6.63s.73-5.558-4.455-5.558Zm-2.2,3.844a2.284,2.284,0,0,1,2.249-1.969,1.9,1.9,0,0,1,1.95,1.969Zm-5.62-1.259a2.217,2.217,0,0,0,1.95-2.436c0-2.287-1.6-3.409-3.621-3.409H8.51v12.805h6.662s4.069.126,4.069-3.782c0,0,.175-3.178-2.4-3.178Zm-5.4-3.571h3.726s.9,0,.9,1.333-.53,1.527-1.135,1.527h-3.5Zm3.54,8.257h-3.54v-3.427h3.726s1.352-.012,1.347,1.764c0,1.5-1,1.651-1.533,1.663Zm6.922-9.776v1.576h5.284v-1.576Zm0,0" fill="#f1f2f2"/>
    </g>
  </g>
</svg>
