<svg xmlns="http://www.w3.org/2000/svg" width="35" height="35" viewBox="0 0 35 35">
  <g id="LinkedIn_Icon" transform="translate(-55 -1297)">
    <g id="LinkedIn_Icon-2" data-name="LinkedIn_Icon" transform="translate(-56.91 1024.581)">
      <path id="Path_1" data-name="Path 1" d="M129.408,272.419a17.5,17.5,0,1,0,17.5,17.5A17.5,17.5,0,0,0,129.408,272.419Zm-4.52,26.278h-4.595V285.552h4.595Zm-2.3-15.117a2.3,2.3,0,1,1,2.3-2.3A2.3,2.3,0,0,1,122.59,283.581ZM140,298.7h-3.942v-6.4c0-1.535-.154-3.492-2.271-3.492s-2.443,1.654-2.443,3.373V298.7h-3.832V285.552h3.664v1.777h.057c.556-1.049,1.887-1.777,3.859-1.777,3.36,0,4.5,1.548,4.8,4.039a15.69,15.69,0,0,1,.106,1.887Z" fill="#fff"/>
    </g>
    <path id="Color_Overlay" data-name="Color Overlay" d="M55,1314.5A17.5,17.5,0,1,1,72.5,1332,17.5,17.5,0,0,1,55,1314.5Zm24.148,2.381v6.4H83.09v-7.218a15.564,15.564,0,0,0-.106-1.887c-.3-2.492-1.442-4.04-4.8-4.04-1.971,0-3.3.728-3.859,1.777h-.057v-1.777H70.6v13.145h3.832v-6.517c0-1.72.339-3.374,2.443-3.374S79.148,1315.345,79.148,1316.879Zm-15.765,6.4h4.6v-13.145h-4.6Zm0-17.413a2.3,2.3,0,1,0,2.3-2.3A2.3,2.3,0,0,0,63.382,1305.864Z" fill="#474747"/>
  </g>
</svg>
