<svg xmlns="http://www.w3.org/2000/svg" width="35" height="35" viewBox="0 0 35 35">
  <g id="Facebook_Icon" transform="translate(-55 -1169)">
    <g id="Facebook_Icon-2" data-name="Facebook_Icon" transform="translate(39.98 896.477)">
      <path id="Path_7" data-name="Path 7" d="M32.518,272.524a17.5,17.5,0,1,0,17.5,17.5A17.5,17.5,0,0,0,32.518,272.524Zm4.756,15.649-.153,1.844H33.652v11.71H28.969v-11.71H26.607v-4.688h2.335v-2.107c0-1.931.9-4.9,4.928-4.9h3.618v4.011H34.861a.987.987,0,0,0-1.028,1.121v1.876h3.72Z" fill="#fff"/>
    </g>
    <path id="Color_Overlay" data-name="Color Overlay" d="M55,1186.5A17.5,17.5,0,1,1,72.5,1204,17.5,17.5,0,0,1,55,1186.5Zm11.587-.005h2.363v11.71h4.683v-11.71H77.1l.153-1.843.277-2.844H73.813v-1.876a.987.987,0,0,1,1.028-1.121h2.626v-4.01H73.85c-4.026,0-4.928,2.969-4.928,4.9v2.107H66.587Z" fill="#474747"/>
  </g>
</svg>
