<svg xmlns="http://www.w3.org/2000/svg" width="35" height="35" viewBox="0 0 35 35">
  <g id="Instagram_Icon" transform="translate(-55 -1233)">
    <g id="Instagram_Icon-2" data-name="Instagram_Icon" transform="translate(-8.827 960.581)">
      <path id="Path_5" data-name="Path 5" d="M86.4,282.05H76.258a2.8,2.8,0,0,0-2.8,2.8v10.138a2.8,2.8,0,0,0,2.8,2.8H86.4a2.8,2.8,0,0,0,2.8-2.8V284.851A2.8,2.8,0,0,0,86.4,282.05ZM81.32,295.438a5.523,5.523,0,1,1,5.525-5.525A5.53,5.53,0,0,1,81.32,295.438Zm5.578-9.551a1.444,1.444,0,1,1,1.442-1.442A1.443,1.443,0,0,1,86.9,285.887Zm-5.578.736a3.29,3.29,0,1,0,3.29,3.29A3.291,3.291,0,0,0,81.32,286.623ZM86.4,282.05H76.258a2.8,2.8,0,0,0-2.8,2.8v10.138a2.8,2.8,0,0,0,2.8,2.8H86.4a2.8,2.8,0,0,0,2.8-2.8V284.851A2.8,2.8,0,0,0,86.4,282.05ZM81.32,295.438a5.523,5.523,0,1,1,5.525-5.525A5.53,5.53,0,0,1,81.32,295.438Zm5.578-9.551a1.444,1.444,0,1,1,1.442-1.442A1.443,1.443,0,0,1,86.9,285.887Zm-5.578.736a3.29,3.29,0,1,0,3.29,3.29A3.291,3.291,0,0,0,81.32,286.623Zm.009-14.2a17.5,17.5,0,1,0,17.5,17.5A17.5,17.5,0,0,0,81.329,272.419Zm10.217,22.569a5.157,5.157,0,0,1-5.151,5.151H76.258a5.157,5.157,0,0,1-5.151-5.151V284.851a5.157,5.157,0,0,1,5.151-5.151H86.4a5.157,5.157,0,0,1,5.151,5.151ZM86.4,282.05H76.258a2.8,2.8,0,0,0-2.8,2.8v10.138a2.8,2.8,0,0,0,2.8,2.8H86.4a2.8,2.8,0,0,0,2.8-2.8V284.851A2.8,2.8,0,0,0,86.4,282.05ZM81.32,295.438a5.523,5.523,0,1,1,5.525-5.525A5.53,5.53,0,0,1,81.32,295.438Zm5.578-9.551a1.444,1.444,0,1,1,1.442-1.442A1.443,1.443,0,0,1,86.9,285.887Zm-5.578.736a3.29,3.29,0,1,0,3.29,3.29A3.291,3.291,0,0,0,81.32,286.623Z" fill="#fff"/>
    </g>
    <path id="Color_Overlay" data-name="Color Overlay" d="M55,1250.5A17.5,17.5,0,1,1,72.5,1268,17.5,17.5,0,0,1,55,1250.5Zm7.281-5.067v10.139a5.156,5.156,0,0,0,5.15,5.15H77.569a5.157,5.157,0,0,0,5.151-5.15v-10.139a5.157,5.157,0,0,0-5.151-5.151H67.431A5.157,5.157,0,0,0,62.281,1245.431Zm5.15,12.938a2.8,2.8,0,0,1-2.8-2.8v-10.139a2.8,2.8,0,0,1,2.8-2.8H77.569a2.8,2.8,0,0,1,2.8,2.8v10.139a2.8,2.8,0,0,1-2.8,2.8Zm5.063-2.351a5.523,5.523,0,1,0-5.521-5.525A5.531,5.531,0,0,0,72.493,1256.018Zm5.578-9.551a1.445,1.445,0,1,0-1.446-1.443A1.444,1.444,0,0,0,78.071,1246.468Zm-8.859,4.026a3.285,3.285,0,1,1,3.281,3.29A3.29,3.29,0,0,1,69.213,1250.493Z" fill="#474747"/>
  </g>
</svg>
