<svg xmlns="http://www.w3.org/2000/svg" width="169" height="42" viewBox="0 0 169 42">
  <g id="Logo_Header" transform="translate(0 -19.085)">
    <g id="Group_4" data-name="Group 4">
      <g id="Group_2" data-name="Group 2">
        <path id="Path_9" data-name="Path 9" d="M20.481,32.8a2.569,2.569,0,0,1,1.013-.438q.226,0,.225.274a.42.42,0,0,1-.154.287,4.391,4.391,0,0,1-.633.451A10.246,10.246,0,0,1,17.117,34.9a14.141,14.141,0,0,1-1.984.22q-1.014.041-2.167.041h-.7l-1.1-.055-1.154,2q-1.1,1.862-1.858,3.27t-1.28,2.5q-.521,1.1-.83,1.943a10.183,10.183,0,0,0-.45,1.588q-.338,1.423.113,1.888a.625.625,0,0,0,.45.137,2.9,2.9,0,0,0,1.534-.56,13.657,13.657,0,0,0,1.7-1.327,20.153,20.153,0,0,0,1.548-1.56q.7-.793,1.1-1.231.45-.52.717-.835c.178-.209.314-.37.409-.479a1.041,1.041,0,0,1,.211-.2.252.252,0,0,1,.127-.041h.084a.261.261,0,0,1,.225.274c.019.091-.094.314-.338.67s-.554.771-.929,1.245-.793.971-1.253,1.492-.906.99-1.337,1.409q-.563.548-.971.917a9.255,9.255,0,0,1-.746.616,7.1,7.1,0,0,1-.648.424,4.574,4.574,0,0,1-.675.315,2.655,2.655,0,0,1-.69.191,5.3,5.3,0,0,1-.746.055,1.968,1.968,0,0,1-1.239-.37,2.694,2.694,0,0,1-.76-.917,3.87,3.87,0,0,1-.38-1.2A8.5,8.5,0,0,1,3,46.05a13.334,13.334,0,0,1,.957-4.529,32.1,32.1,0,0,1,2.787-5.569q.281-.438.45-.752c.113-.21.15-.332.113-.37a2,2,0,0,0-.479-.054q-.45-.028-1-.042c-.366-.008-.718-.017-1.055-.027s-.573-.014-.7-.014a14.783,14.783,0,0,0-1.759.082,7.783,7.783,0,0,0-1.365.3,2.83,2.83,0,0,1-.676.164q-.169,0-.253-.219-.141-.384.83-.766a9.046,9.046,0,0,1,2.435-.52,2.371,2.371,0,0,1,.408-.027h.6q.507,0,1.112.014t1.14.041q.534.028.886.055a1.362,1.362,0,0,1,.38.055c.056.037.154,0,.3-.123a2.666,2.666,0,0,0,.464-.561q.253-.356.548-.753t.605-.794q.309-.4.591-.725c.187-.219.347-.392.478-.52a5.178,5.178,0,0,1,.859-.7,2.047,2.047,0,0,1,.831-.288,1.267,1.267,0,0,1,.282-.027.728.728,0,0,1,.478.191,1.006,1.006,0,0,1,.478.684,1.421,1.421,0,0,1-.14.9c-.056.092-.179.3-.366.63s-.393.675-.619,1.04l-.816,1.287.366.082a3.189,3.189,0,0,0,.521.027h1.844a18.686,18.686,0,0,0,3.1-.287A8.7,8.7,0,0,0,20.481,32.8Z" fill="#fff"/>
        <path id="Path_10" data-name="Path 10" d="M31.232,43.012a1.152,1.152,0,0,1-.183.383q-.184.3-.464.711t-.633.876q-.353.466-.69.875-.367.439-.8.917t-.872.9q-.437.425-.831.766a6.252,6.252,0,0,1-.647.506,4.448,4.448,0,0,1-2.308.739,1.863,1.863,0,0,1-1.7-.821,4.562,4.562,0,0,1-.661-1.861,5,5,0,0,1,.056-1.259,13.852,13.852,0,0,1,.338-1.6,13.554,13.554,0,0,1,.577-1.683,13.16,13.16,0,0,1,.746-1.532,2.724,2.724,0,0,0,.211-.384c.047-.109.052-.164.015-.164a2.158,2.158,0,0,0-.732.492q-.591.493-1.351,1.231a21.085,21.085,0,0,0-1.7,1.916q-.944,1.177-2.1,2.791A10.717,10.717,0,0,1,16,48.622a1.753,1.753,0,0,1-1.125.52H14.71Q13.049,48.9,13.049,45.2q0-.711.056-1.314a9.728,9.728,0,0,1,.211-1.273,14.462,14.462,0,0,1,.437-1.478q.281-.807.732-1.93a27.756,27.756,0,0,1,2.533-5.035A15.92,15.92,0,0,1,20,30.615q.309-.246.548-.424a2.971,2.971,0,0,1,.464-.287,2.074,2.074,0,0,1,.507-.164,3.817,3.817,0,0,1,.7-.055q.2,0,.436.383a1.338,1.338,0,0,1,.239.684,1.491,1.491,0,0,1-.2.7q-.2.369-.872,1.327-.986,1.368-1.942,3t-1.773,3.271q-.817,1.641-1.422,3.174a17.665,17.665,0,0,0-.859,2.71,6.625,6.625,0,0,0-.14.725q-.057.4-.084.725t-.028.561c0,.155.019.233.056.233.019,0,.07-.041.155-.123s.215-.228.393-.438.417-.5.718-.862.676-.83,1.126-1.4q.478-.575,1.337-1.533t1.857-1.874a16.286,16.286,0,0,1,2.012-1.588,3.366,3.366,0,0,1,1.773-.67,1.161,1.161,0,0,1,.886.534,2.078,2.078,0,0,1,.324,1.19,4.4,4.4,0,0,1-.07.67q-.071.425-.183.944T25.7,43.135q-.155.588-.324,1.136-.619,1.916-.83,2.682a3.387,3.387,0,0,0-.183.9.365.365,0,0,0,.07.178.486.486,0,0,0,.268.041,2.73,2.73,0,0,0,1.379-.547,11.155,11.155,0,0,0,1.477-1.217,18.63,18.63,0,0,0,1.323-1.423q.605-.725.943-1.163a10.375,10.375,0,0,1,.675-.875q.226-.246.366-.247a.342.342,0,0,1,.239.151A.436.436,0,0,1,31.232,43.012Z" fill="#fff"/>
        <path id="Path_11" data-name="Path 11" d="M41.168,42.109a.277.277,0,0,1,.225.3q.027.192-.268.561a8.254,8.254,0,0,1-.774.821q-.478.451-1.1.93t-1.267.889a8.908,8.908,0,0,1-1.97.958,5.975,5.975,0,0,1-1.886.328,3.4,3.4,0,0,1-.957-.109,2.752,2.752,0,0,1-1.689-1.122,3.649,3.649,0,0,1-.619-2.162,4.59,4.59,0,0,1,1.323-3.312A6.839,6.839,0,0,1,34.1,38.729a4.346,4.346,0,0,1,1.942-.506,3.689,3.689,0,0,1,.563.055,1.952,1.952,0,0,1,1.52.944,1.816,1.816,0,0,1-.113,1.738,3.973,3.973,0,0,1-.633.876,6.4,6.4,0,0,1-.915.807,8.506,8.506,0,0,1-1.055.657,5.228,5.228,0,0,1-1.056.424L33.484,44v.52a1.4,1.4,0,0,0,.07.752.945.945,0,0,0,.464.424,2.164,2.164,0,0,0,.845.164,3.859,3.859,0,0,0,1.407-.273,7.651,7.651,0,0,0,1.365-.7A13.868,13.868,0,0,0,38.9,43.97q.605-.493,1.056-.931.59-.547.83-.739A.7.7,0,0,1,41.168,42.109Zm-6.952,0q-.169.3-.282.534a1.055,1.055,0,0,0-.113.287c0,.019.019.028.056.028a3.459,3.459,0,0,0,1.041-.411,6.42,6.42,0,0,0,1.07-.656,4.806,4.806,0,0,0,.83-.78,2.357,2.357,0,0,0,.437-.753.449.449,0,0,0-.085-.52.571.571,0,0,0-.338-.082,1.563,1.563,0,0,0-.844.246,3.749,3.749,0,0,0-.732.6,4.694,4.694,0,0,0-.591.766Q34.413,41.781,34.216,42.109Z" fill="#fff"/>
      </g>
      <g id="Group_3" data-name="Group 3">
        <path id="Path_12" data-name="Path 12" d="M72.18,49.758a14.167,14.167,0,0,1-4.45,5.6,14.887,14.887,0,0,1-9.346,3.176,14.738,14.738,0,0,1-10.651-4.288,14.364,14.364,0,0,1,0-20.712,14.738,14.738,0,0,1,10.651-4.288,14.887,14.887,0,0,1,9.346,3.176,14.292,14.292,0,0,1,4.067,4.8h2.768a16.758,16.758,0,0,0-5.027-6.532A17.376,17.376,0,0,0,58.383,26.8,17.194,17.194,0,0,0,45.95,31.819a16.725,16.725,0,0,0,0,24.133,17.194,17.194,0,0,0,12.433,5.023,17.376,17.376,0,0,0,11.155-3.89,16.664,16.664,0,0,0,5.342-7.328Z" fill="#fff"/>
        <path id="Path_13" data-name="Path 13" d="M83.767,19.085h2.515V59.708H83.767Z" fill="#fff"/>
        <path id="Path_14" data-name="Path 14" d="M125.652,27.974V46.419A13.99,13.99,0,0,1,121.241,56.8a15.4,15.4,0,0,1-21.325,0,13.989,13.989,0,0,1-4.411-10.378V27.974H98.02V46.419a11.616,11.616,0,0,0,3.68,8.645,12.809,12.809,0,0,0,17.759,0,11.584,11.584,0,0,0,3.7-8.645V27.974Z" fill="#fff"/>
        <path id="Path_15" data-name="Path 15" d="M151.424,26.774a17.188,17.188,0,0,1,11.862,4.51,16.348,16.348,0,0,1,5.622,11q.091.911.091,1.577l-.023.445-.023.421H136.408a14.016,14.016,0,0,0,4.663,9.778,14.811,14.811,0,0,0,10.353,4,15,15,0,0,0,8.342-2.467,14.5,14.5,0,0,0,5.44-6.334h2.674a16.884,16.884,0,0,1-6.308,8.067,17.855,17.855,0,0,1-22.581-1.845,16.729,16.729,0,0,1,0-24.134A17.194,17.194,0,0,1,151.424,26.774Zm14.97,15.511A14.106,14.106,0,0,0,161.526,33a15.4,15.4,0,0,0-20.2,0,13.973,13.973,0,0,0-4.868,9.29Z" fill="#fff"/>
      </g>
    </g>
  </g>
</svg>
